<svg xmlns="http://www.w3.org/2000/svg" version="1.1" xmlns:xlink="http://www.w3.org/1999/xlink" xmlns:svgjs="http://svgjs.dev/svgjs" width="2000" height="308" viewBox="0 0 2000 308"><g transform="matrix(1,0,0,1,-1.2121212121212466,-0.7767004000277495)"><svg viewBox="0 0 396 61" data-background-color="#8dbdff" preserveAspectRatio="xMidYMid meet" height="308" width="2000" xmlns="http://www.w3.org/2000/svg" xmlns:xlink="http://www.w3.org/1999/xlink"><g id="tight-bounds" transform="matrix(1,0,0,1,0.2400000000000091,0.15382702727822561)"><svg viewBox="0 0 395.52 60.69234594544357" height="60.69234594544357" width="395.52"><g><svg viewBox="0 0 500.66439848986465 76.82670124320965" height="60.69234594544357" width="395.52"><g transform="matrix(1,0,0,1,105.14439848986464,1.840353228805661)"><svg viewBox="0 0 395.52 73.14599478559833" height="73.14599478559833" width="395.52"><g id="textblocktransform"><svg viewBox="0 0 395.52 73.14599478559833" height="73.14599478559833" width="395.52" id="textblock"><g><svg viewBox="0 0 395.52 37.4268518341155" height="37.4268518341155" width="395.52"><g transform="matrix(1,0,0,1,0,0)"><svg width="395.52" viewBox="5.4 -38.4 521.01 49.4" height="37.4268518341155" data-palette-color="#374151"><g class="wordmark-text-0" data-fill-palette-color="primary" id="text-0"><path d="M11.1 0L5.4 0 5.4-35.7Q9.3-36.3 17.35-36.3L17.35-36.3Q22.75-36.3 25.65-33.23 28.55-30.15 28.55-24.9 28.55-19.65 25.08-16.2 21.6-12.75 15.6-12.75L15.6-12.75Q14.4-12.75 11.1-12.85L11.1-12.85 11.1 0ZM11.1-31.65L11.1-17.25Q12.3-17.2 15-17.2L15-17.2Q19.1-17.2 20.83-19.05 22.55-20.9 22.55-24.45 22.55-28 20.95-29.9 19.35-31.8 15.65-31.8L15.65-31.8Q13.4-31.8 11.1-31.65L11.1-31.65ZM53.55-5.7L53.55-5.7 55.4-2.3Q54.55-1.5 51.8-0.45 49.05 0.6 45.9 0.6L45.9 0.6Q40.3 0.6 36.87-2.8 33.45-6.2 33.45-13L33.45-13Q33.45-16.75 34.65-19.63 35.85-22.5 37.75-24.1L37.75-24.1Q41.65-27.3 45.92-27.3 50.2-27.3 52.72-25.13 55.25-22.95 55.25-19.8L55.25-19.8Q55.25-15.65 51.3-13.03 47.35-10.4 38.65-10.4L38.65-10.4Q38.65-8.1 40.57-5.85 42.5-3.6 46.27-3.6 50.05-3.6 53.55-5.7ZM50.4-19.35L50.4-19.35Q50.4-20.85 49.27-21.98 48.15-23.1 46.1-23.1L46.1-23.1Q42.8-23.1 40.67-20.63 38.55-18.15 38.5-14.15L38.5-14.15Q50.4-14.15 50.4-19.35ZM62.55 0L62.55-18.2Q62.55-22.7 61.65-26.3L61.65-26.3 65.84-26.85 67.09-23.6Q70.25-27.3 74.2-27.3L74.2-27.3Q76.84-27.3 78.32-26.05 79.8-24.8 79.8-22.5 79.8-20.2 79.05-18.45L79.05-18.45 74.75-19Q74.75-21.25 74.32-22.18 73.9-23.1 72.57-23.1 71.25-23.1 69.97-22.05 68.7-21 67.95-19.7L67.95-19.7 67.95 0 62.55 0ZM85.59-25.75L86.74-32.05 90.99-32.6 90.99-25.75 98.74-25.75 98.14-22.15 90.99-22.15 90.99-8.75Q90.99-6.05 91.82-4.83 92.64-3.6 94.39-3.6 96.14-3.6 98.34-4L98.34-4 98.99-0.35Q95.89 0.6 92.99 0.6L92.99 0.6Q88.94 0.6 87.27-1.55 85.59-3.7 85.59-7.65L85.59-7.65 85.59-22.15 81.84-22.15 81.84-25.25 85.59-25.75ZM108.84-38L108.84-38Q110.09-38 110.94-37.23 111.79-36.45 111.79-34.9L111.79-34.9Q111.79-31.65 108.39-31.65L108.39-31.65Q107.19-31.65 106.39-32.43 105.59-33.2 105.59-34.7L105.59-34.7Q105.59-38 108.84-38ZM111.39 0L105.99 0 105.99-26.35 111.39-27.05 111.39 0ZM121.39 0L121.39-18.2Q121.39-22.7 120.49-26.3L120.49-26.3 124.69-26.85 125.64-24.35Q129.89-27.3 134.36-27.3 138.84-27.3 140.94-24.4L140.94-24.4Q144.99-27.3 149.61-27.3 154.24-27.3 156.31-24.85 158.39-22.4 158.39-17.5L158.39-17.5 158.39 0 152.99 0 152.99-16.5Q152.99-21.35 150.69-22.55L150.69-22.55Q149.69-23.1 148.14-23.1L148.14-23.1Q145.54-23.1 142.34-20.85L142.34-20.85Q142.64-19.3 142.64-17.5L142.64-17.5 142.64 0 137.24 0 137.24-16.5Q137.24-19.6 136.29-21.35 135.34-23.1 132.44-23.1 129.54-23.1 126.79-20.95L126.79-20.95 126.79 0 121.39 0ZM167.39-1.8L167.39-1.8 167.39-37.7 172.79-38.4 172.79-25.7Q176.09-27.3 179.84-27.3L179.84-27.3Q184.34-27.3 187.26-23.8 190.19-20.3 190.19-13.7 190.19-7.1 186.91-3.25 183.64 0.6 177.09 0.6L177.09 0.6Q174.64 0.6 171.81-0.18 168.99-0.95 167.39-1.8ZM184.49-13.73Q184.49-18.7 182.86-20.9 181.24-23.1 178.24-23.1 175.24-23.1 172.79-21.7L172.79-21.7 172.79-4.25Q174.49-3.6 177.19-3.6L177.19-3.6Q181.29-3.6 182.89-6.18 184.49-8.75 184.49-13.73ZM217.78-25.05L217.78-25.05 217.78-6.35Q217.78-4.6 218.18-4.03 218.58-3.45 220.13-3.45L220.13-3.45 220.33-0.3Q219.08 0.15 217.68 0.15L217.68 0.15Q213.78 0.15 213.03-3.4L213.03-3.4Q210.38 0.6 205.21 0.6 200.03 0.6 197.51-3.25 194.98-7.1 194.98-13.18 194.98-19.25 198.43-23.28 201.88-27.3 207.68-27.3L207.68-27.3Q210.03-27.3 213.16-26.58 216.28-25.85 217.78-25.05ZM200.68-12.75Q200.68-7.9 202.16-5.75 203.63-3.6 206.43-3.6 209.23-3.6 210.81-5.58 212.38-7.55 212.38-10.45L212.38-10.45 212.38-22.45Q210.43-23.1 207.93-23.1L207.93-23.1Q204.13-23.1 202.41-20.35 200.68-17.6 200.68-12.75ZM228.03 0L228.03-18.2Q228.03-22.7 227.13-26.3L227.13-26.3 231.33-26.85 232.28-24.35Q236.48-27.3 240.88-27.3L240.88-27.3Q249.98-27.3 249.98-17.5L249.98-17.5 249.98 0 244.58 0 244.58-16.5Q244.58-23.1 239.33-23.1L239.33-23.1Q236.28-23.1 233.43-20.95L233.43-20.95 233.43 0 228.03 0ZM279.18-24.9L279.18-24.9 279.18-1.6Q279.18 4.5 276 7.75 272.83 11 266.98 11L266.98 11Q263.38 11 261.6 10.5 259.83 10 259 9.73 258.18 9.45 258.08 9.45L258.08 9.45 259.23 5.4Q262.63 6.65 265.23 6.65 267.83 6.65 269.13 6.35 270.43 6.05 271.58 5.15L271.58 5.15Q273.78 3.45 273.78-2.25L273.78-2.25 273.78-3.05Q272.88-1.65 271.03-0.53 269.18 0.6 266.58 0.6L266.58 0.6Q262.28 0.6 259.33-2.65 256.38-5.9 256.38-12.63 256.38-19.35 259.58-23.33 262.78-27.3 269.23-27.3L269.23-27.3Q274.28-27.3 279.18-24.9ZM262.08-13.1Q262.08-7.85 263.58-5.73 265.08-3.6 267.9-3.6 270.73-3.6 272.25-5.6 273.78-7.6 273.78-10.35L273.78-10.35 273.78-22.45Q271.98-23.1 269.58-23.1L269.58-23.1Q265.53-23.1 263.8-20.73 262.08-18.35 262.08-13.1ZM309.38-25.05L309.38-25.05 309.38-6.35Q309.38-4.6 309.78-4.03 310.18-3.45 311.73-3.45L311.73-3.45 311.93-0.3Q310.68 0.15 309.28 0.15L309.28 0.15Q305.38 0.15 304.63-3.4L304.63-3.4Q301.98 0.6 296.8 0.6 291.63 0.6 289.1-3.25 286.57-7.1 286.57-13.18 286.57-19.25 290.03-23.28 293.48-27.3 299.28-27.3L299.28-27.3Q301.63-27.3 304.75-26.58 307.88-25.85 309.38-25.05ZM292.28-12.75Q292.28-7.9 293.75-5.75 295.23-3.6 298.03-3.6 300.82-3.6 302.4-5.58 303.98-7.55 303.98-10.45L303.98-10.45 303.98-22.45Q302.03-23.1 299.53-23.1L299.53-23.1Q295.73-23.1 294-20.35 292.28-17.6 292.28-12.75ZM319.62 0L319.62-18.2Q319.62-22.7 318.72-26.3L318.72-26.3 322.92-26.85 323.87-24.35Q328.07-27.3 332.47-27.3L332.47-27.3Q341.57-27.3 341.57-17.5L341.57-17.5 341.57 0 336.17 0 336.17-16.5Q336.17-23.1 330.92-23.1L330.92-23.1Q327.87-23.1 325.02-20.95L325.02-20.95 325.02 0 319.62 0Z" fill="#374151" data-fill-palette-color="primary"></path><path d="M367.17 0L361.47 0 361.47-36 367.17-36 367.17-21 382.27-21 382.27-36 387.97-36 387.97 0 382.27 0 382.27-16.2 367.17-16.2 367.17 0ZM413.62-26.35L419.02-27.05 419.02-6.25Q419.02-4.45 419.44-3.95 419.87-3.45 421.37-3.45L421.37-3.45 421.57-0.3Q420.32 0.15 418.92 0.15L418.92 0.15Q415.87 0.15 414.62-2.25L414.62-2.25Q411.37 0.6 406.47 0.6L406.47 0.6Q397.37 0.6 397.37-9.2L397.37-9.2 397.37-26.35 402.77-27.05 402.77-10.2Q402.77-3.6 408.02-3.6L408.02-3.6Q411.62-3.6 413.62-5.7L413.62-5.7 413.62-26.35ZM434.66-9.95L434.66 0 429.26 0 429.26-37.7 434.66-38.4 434.66-15.6 446.11-27 452.61-26.4 441.26-15.75 447.06-7.55Q449.81-3.7 452.76-3.6L452.76-3.6 452.76 0.25Q452.36 0.35 451.11 0.35L451.11 0.35Q446.06 0.35 442.76-4.5L442.76-4.5 437.41-12.5 434.66-9.95ZM473.76-26.35L479.16-27.05 479.16-6.25Q479.16-4.45 479.59-3.95 480.01-3.45 481.51-3.45L481.51-3.45 481.71-0.3Q480.46 0.15 479.06 0.15L479.06 0.15Q476.01 0.15 474.76-2.25L474.76-2.25Q471.51 0.6 466.61 0.6L466.61 0.6Q457.51 0.6 457.51-9.2L457.51-9.2 457.51-26.35 462.91-27.05 462.91-10.2Q462.91-3.6 468.16-3.6L468.16-3.6Q471.76-3.6 473.76-5.7L473.76-5.7 473.76-26.35ZM489.41 0L489.41-18.2Q489.41-22.7 488.51-26.3L488.51-26.3 492.71-26.85 493.66-24.35Q497.91-27.3 502.38-27.3 506.86-27.3 508.96-24.4L508.96-24.4Q513.01-27.3 517.63-27.3 522.26-27.3 524.33-24.85 526.41-22.4 526.41-17.5L526.41-17.5 526.41 0 521.01 0 521.01-16.5Q521.01-21.35 518.71-22.55L518.71-22.55Q517.71-23.1 516.16-23.1L516.16-23.1Q513.56-23.1 510.36-20.85L510.36-20.85Q510.66-19.3 510.66-17.5L510.66-17.5 510.66 0 505.26 0 505.26-16.5Q505.26-19.6 504.31-21.35 503.36-23.1 500.46-23.1 497.56-23.1 494.81-20.95L494.81-20.95 494.81 0 489.41 0Z" fill="#0d7dff" data-fill-palette-color="accent"></path></g></svg></g></svg></g><g transform="matrix(1,0,0,1,0,46.262433307706154)"><svg viewBox="0 0 375.74399999999997 26.883561477892187" height="26.883561477892187" width="375.74399999999997"><g transform="matrix(1,0,0,1,0,0)"><svg width="375.74399999999997" viewBox="4.63 -37.1 660.33 47.25" height="26.883561477892187" data-palette-color="#374151"><path d="M32.05 0L26.38 0Q24-2.58 21.91-4.84 19.83-7.1 17.85-9.25L17.85-9.25 11.08-16.57 8.63-16.57 8.63-20.3 11.05-20.3 16.93-26.43Q19-28.58 21.03-30.7 23.05-32.83 25.73-35.65L25.73-35.65 31.23-35.65Q28.48-32.83 25.86-30.11 23.25-27.4 20.65-24.7L20.65-24.7 14.05-17.82 13.98-19.83 21.3-11.75Q23.03-9.9 24.96-7.75 26.9-5.6 28.78-3.58 30.65-1.55 32.05 0L32.05 0ZM9.15 0L4.63 0Q4.63-2.98 4.63-5.73 4.63-8.47 4.63-11.78L4.63-11.78 4.63-23.73Q4.63-27.1 4.63-29.89 4.63-32.68 4.63-35.65L4.63-35.65 9.15-35.65Q9.15-32.68 9.15-29.89 9.15-27.1 9.15-23.73L9.15-23.73 9.15-11.78Q9.15-8.47 9.15-5.73 9.15-2.98 9.15 0L9.15 0ZM49.05 0.55L49.05 0.55Q44.6 0.55 41.72-1.15 38.85-2.85 37.45-5.8 36.05-8.75 36.05-12.55L36.05-12.55Q36.05-16.3 37.42-19.2 38.8-22.1 41.37-23.74 43.95-25.38 47.52-25.38L47.52-25.38Q50.67-25.38 52.94-24.15 55.2-22.93 56.42-20.56 57.65-18.2 57.65-14.73L57.65-14.73Q57.65-13.8 57.61-13.06 57.57-12.33 57.45-11.58L57.45-11.58 53.82-13.4Q53.87-13.8 53.89-14.16 53.9-14.53 53.9-14.88L53.9-14.88Q53.9-18.4 52.15-20.24 50.4-22.08 47.57-22.08L47.57-22.08Q45.3-22.08 43.66-20.91 42.02-19.75 41.12-17.7 40.22-15.65 40.22-13.03L40.22-13.03 40.22-12.45Q40.22-9.55 41.22-7.45 42.22-5.35 44.26-4.21 46.3-3.08 49.45-3.08L49.45-3.08Q50.62-3.08 51.94-3.26 53.25-3.45 54.54-3.85 55.82-4.25 57-4.9L57-4.9 57.17-1.18Q56.22-0.65 54.97-0.26 53.72 0.13 52.22 0.34 50.72 0.55 49.05 0.55ZM57.45-11.58L37.77-11.58 37.77-14.53 54.92-14.68 57.45-13.73 57.45-11.58ZM64.6 9.6L60.17 9.75Q61.62 8.18 62.53 6.54 63.45 4.9 63.86 2.96 64.27 1.03 64.27-1.53L64.27-1.53 64.27-10.95 64.27-13.45Q64.27-15.68 64.27-17.56 64.27-19.45 64.27-21.21 64.27-22.98 64.27-24.8L64.27-24.8 68.42-24.95Q68.42-23.1 68.42-21.31 68.42-19.53 68.42-17.61 68.42-15.7 68.42-13.45L68.42-13.45Q68.42-10.55 68.42-8.38 68.42-6.2 68.42-4.42 68.42-2.65 68.42-0.95L68.42-0.95Q68.42 0.93 68.16 2.5 67.9 4.08 67.38 5.38 66.87 6.68 66.17 7.73 65.47 8.78 64.6 9.6L64.6 9.6ZM66.27-30.53L66.27-30.53Q64.92-30.53 64.07-31.28 63.22-32.02 63.22-33.58L63.22-33.58Q63.22-35.1 64.07-35.86 64.92-36.63 66.32-36.63L66.32-36.63Q67.7-36.63 68.52-35.84 69.35-35.05 69.35-33.58L69.35-33.58Q69.35-32.02 68.52-31.28 67.7-30.53 66.27-30.53ZM82.77 0.5L82.77 0.5Q80.54 0.5 78.87-0.36 77.19-1.23 76.26-2.83 75.32-4.42 75.32-6.68L75.32-6.68Q75.32-8.7 76.04-10.09 76.77-11.48 77.94-12.35 79.12-13.23 80.54-13.71 81.97-14.2 83.39-14.45L83.39-14.45 91.17-15.8Q91.27-18.32 90.51-19.61 89.74-20.9 88.37-21.35 86.99-21.8 85.32-21.8L85.32-21.8Q84.47-21.8 83.49-21.68 82.52-21.55 81.43-21.29 80.34-21.03 79.14-20.63 77.94-20.23 76.62-19.65L76.62-19.65 76.39-23.43Q77.29-23.8 78.43-24.15 79.57-24.5 80.86-24.79 82.14-25.08 83.49-25.23 84.84-25.38 86.22-25.38L86.22-25.38Q88.99-25.38 91.01-24.5 93.02-23.63 94.09-21.75 95.17-19.88 95.17-16.85L95.17-16.85Q95.17-15.7 95.17-13.93 95.17-12.15 95.17-10.55L95.17-10.55 95.17-7.33Q95.17-5.63 95.17-3.86 95.17-2.1 95.17 0L95.17 0 91.42 0 91.19-3.53 90.79-3.53Q90.02-2.53 88.84-1.6 87.67-0.68 86.13-0.09 84.59 0.5 82.77 0.5ZM83.97-2.93L83.97-2.93Q85.29-2.93 86.62-3.48 87.94-4.03 89.11-5.11 90.27-6.2 91.07-7.85L91.07-7.85 91.09-13.2Q90.69-12.98 90.03-12.75 89.37-12.53 88.06-12.24 86.74-11.95 84.42-11.53L84.42-11.53Q82.99-11.28 81.89-10.71 80.79-10.15 80.16-9.19 79.52-8.22 79.52-6.85L79.52-6.85Q79.52-4.7 80.81-3.81 82.09-2.93 83.97-2.93ZM124.94 0L119.57 0Q117.89-1.7 116.18-3.4 114.47-5.1 112.79-6.78L112.79-6.78 108.52-11.05 106.77-11.05 106.77-14 108.77-14 112.37-17.82Q114.02-19.55 115.69-21.31 117.37-23.08 118.99-24.8L118.99-24.8 124.09-24.8Q121.94-22.63 119.82-20.45 117.69-18.28 115.59-16.1L115.59-16.1 111.37-11.8 111.22-13.8 116.12-8.75Q118.34-6.55 120.55-4.36 122.77-2.18 124.94 0L124.94 0ZM107.24 0L103.12 0Q103.12-2.78 103.12-5.33 103.12-7.88 103.12-10.95L103.12-10.95 103.12-24.68Q103.12-27.83 103.12-30.8 103.12-33.77 103.12-36.6L103.12-36.6 107.24-37.1Q107.24-34.13 107.24-31.06 107.24-28 107.24-24.68L107.24-24.68 107.24-10.3Q107.24-7.5 107.24-5.08 107.24-2.65 107.24 0L107.24 0ZM137.21 0.55L137.21 0.55Q135.66 0.55 134.1 0.3 132.54 0.05 131.16-0.36 129.79-0.78 128.76-1.3L128.76-1.3 129.09-5.18Q130.24-4.53 131.55-4.04 132.86-3.55 134.28-3.29 135.69-3.03 137.11-3.03L137.11-3.03Q138.49-3.03 139.65-3.34 140.81-3.65 141.5-4.49 142.19-5.33 142.19-6.93L142.19-6.93Q142.19-7.98 141.59-8.65 140.99-9.33 139.58-9.88 138.16-10.43 135.76-11.1L135.76-11.1Q133.79-11.65 132.24-12.45 130.69-13.25 129.8-14.6 128.91-15.95 128.91-18.13L128.91-18.13Q128.91-21.5 131.13-23.44 133.34-25.38 137.09-25.38L137.09-25.38Q138.64-25.38 140.09-25.11 141.54-24.85 142.76-24.43 143.99-24 144.89-23.53L144.89-23.53 144.54-19.65Q143.34-20.4 142.06-20.89 140.79-21.38 139.61-21.59 138.44-21.8 137.54-21.8L137.54-21.8Q136.51-21.8 135.5-21.51 134.49-21.23 133.81-20.46 133.14-19.7 133.14-18.28L133.14-18.28Q133.14-17.25 133.61-16.55 134.09-15.85 135.26-15.3 136.44-14.75 138.51-14.15L138.51-14.15Q140.99-13.43 142.75-12.64 144.51-11.85 145.46-10.58 146.41-9.3 146.41-7.05L146.41-7.05Q146.41-4.88 145.46-3.16 144.51-1.45 142.49-0.45 140.46 0.55 137.21 0.55ZM158.76 0.5L158.76 0.5Q156.54 0.5 154.86-0.36 153.19-1.23 152.25-2.83 151.31-4.42 151.31-6.68L151.31-6.68Q151.31-8.7 152.04-10.09 152.76-11.48 153.94-12.35 155.11-13.23 156.54-13.71 157.96-14.2 159.39-14.45L159.39-14.45 167.16-15.8Q167.26-18.32 166.5-19.61 165.74-20.9 164.36-21.35 162.99-21.8 161.31-21.8L161.31-21.8Q160.46-21.8 159.49-21.68 158.51-21.55 157.42-21.29 156.34-21.03 155.14-20.63 153.94-20.23 152.61-19.65L152.61-19.65 152.39-23.43Q153.29-23.8 154.42-24.15 155.56-24.5 156.85-24.79 158.14-25.08 159.49-25.23 160.84-25.38 162.21-25.38L162.21-25.38Q164.99-25.38 167-24.5 169.01-23.63 170.09-21.75 171.16-19.88 171.16-16.85L171.16-16.85Q171.16-15.7 171.16-13.93 171.16-12.15 171.16-10.55L171.16-10.55 171.16-7.33Q171.16-5.63 171.16-3.86 171.16-2.1 171.16 0L171.16 0 167.41 0 167.19-3.53 166.79-3.53Q166.01-2.53 164.84-1.6 163.66-0.68 162.12-0.09 160.59 0.5 158.76 0.5ZM159.96-2.93L159.96-2.93Q161.29-2.93 162.61-3.48 163.94-4.03 165.1-5.11 166.26-6.2 167.06-7.85L167.06-7.85 167.09-13.2Q166.69-12.98 166.02-12.75 165.36-12.53 164.05-12.24 162.74-11.95 160.41-11.53L160.41-11.53Q158.99-11.28 157.89-10.71 156.79-10.15 156.15-9.19 155.51-8.22 155.51-6.85L155.51-6.85Q155.51-4.7 156.8-3.81 158.09-2.93 159.96-2.93ZM184.91 0.5L184.91 0.5Q182.68 0.5 181.01-0.36 179.33-1.23 178.4-2.83 177.46-4.42 177.46-6.68L177.46-6.68Q177.46-8.7 178.18-10.09 178.91-11.48 180.08-12.35 181.26-13.23 182.68-13.71 184.11-14.2 185.53-14.45L185.53-14.45 193.31-15.8Q193.41-18.32 192.65-19.61 191.88-20.9 190.51-21.35 189.13-21.8 187.46-21.8L187.46-21.8Q186.61-21.8 185.63-21.68 184.66-21.55 183.57-21.29 182.48-21.03 181.28-20.63 180.08-20.23 178.76-19.65L178.76-19.65 178.53-23.43Q179.43-23.8 180.57-24.15 181.71-24.5 183-24.79 184.28-25.08 185.63-25.23 186.98-25.38 188.36-25.38L188.36-25.38Q191.13-25.38 193.15-24.5 195.16-23.63 196.23-21.75 197.31-19.88 197.31-16.85L197.31-16.85Q197.31-15.7 197.31-13.93 197.31-12.15 197.31-10.55L197.31-10.55 197.31-7.33Q197.31-5.63 197.31-3.86 197.31-2.1 197.31 0L197.31 0 193.56 0 193.33-3.53 192.93-3.53Q192.16-2.53 190.98-1.6 189.81-0.68 188.27-0.09 186.73 0.5 184.91 0.5ZM186.11-2.93L186.11-2.93Q187.43-2.93 188.76-3.48 190.08-4.03 191.25-5.11 192.41-6.2 193.21-7.85L193.21-7.85 193.23-13.2Q192.83-12.98 192.17-12.75 191.51-12.53 190.2-12.24 188.88-11.95 186.56-11.53L186.56-11.53Q185.13-11.28 184.03-10.71 182.93-10.15 182.3-9.19 181.66-8.22 181.66-6.85L181.66-6.85Q181.66-4.7 182.95-3.81 184.23-2.93 186.11-2.93ZM209.38 0L205.26 0Q205.26-2.78 205.26-5.33 205.26-7.88 205.26-10.95L205.26-10.95 205.26-13.45Q205.26-16.2 205.26-19.07 205.26-21.95 205.26-24.8L205.26-24.8 208.86-25.05 208.98-20.45 209.43-20.45Q210.23-21.58 211.48-22.73 212.73-23.88 214.43-24.64 216.13-25.4 218.33-25.4L218.33-25.4Q222.28-25.4 224.11-23.13 225.93-20.85 225.93-16.53L225.93-16.53Q225.93-14.9 225.93-13.65 225.93-12.4 225.93-10.95L225.93-10.95Q225.93-8 225.93-5.39 225.93-2.78 225.93 0L225.93 0 221.81 0Q221.81-2.78 221.81-5.36 221.81-7.95 221.81-10.78L221.81-10.78 221.81-15.48Q221.81-18.45 220.74-19.98 219.68-21.5 216.91-21.5L216.91-21.5Q215.23-21.5 213.86-20.83 212.48-20.15 211.37-19.01 210.26-17.88 209.38-16.5L209.38-16.5 209.38-10.78Q209.38-7.85 209.38-5.31 209.38-2.78 209.38 0L209.38 0ZM248.1 0L243.8 0Q243.8-2.98 243.8-5.73 243.8-8.47 243.8-11.78L243.8-11.78 243.8-23.73Q243.8-27.1 243.8-29.89 243.8-32.68 243.8-35.65L243.8-35.65 247.88-35.65Q251.08-31.15 254.03-26.98 256.98-22.8 259.85-18.75L259.85-18.75 267.58-7.85 267.95-7.85 267.95-23.73Q267.95-27.1 267.95-29.89 267.95-32.68 267.95-35.65L267.95-35.65 272.25-35.65Q272.25-32.68 272.25-29.89 272.25-27.1 272.25-23.73L272.25-23.73 272.25-11.78Q272.25-8.47 272.25-5.73 272.25-2.98 272.25 0L272.25 0 268.23 0Q265.58-3.75 262.65-7.89 259.73-12.03 256.23-16.98L256.23-16.98 248.45-27.95 248.1-27.95 248.1-11.78Q248.1-8.47 248.1-5.73 248.1-2.98 248.1 0L248.1 0ZM292.37 0.55L292.37 0.55Q287.92 0.55 285.05-1.15 282.17-2.85 280.77-5.8 279.37-8.75 279.37-12.55L279.37-12.55Q279.37-16.3 280.75-19.2 282.12-22.1 284.7-23.74 287.27-25.38 290.85-25.38L290.85-25.38Q294-25.38 296.26-24.15 298.52-22.93 299.75-20.56 300.97-18.2 300.97-14.73L300.97-14.73Q300.97-13.8 300.94-13.06 300.9-12.33 300.77-11.58L300.77-11.58 297.15-13.4Q297.2-13.8 297.21-14.16 297.22-14.53 297.22-14.88L297.22-14.88Q297.22-18.4 295.47-20.24 293.72-22.08 290.9-22.08L290.9-22.08Q288.62-22.08 286.99-20.91 285.35-19.75 284.45-17.7 283.55-15.65 283.55-13.03L283.55-13.03 283.55-12.45Q283.55-9.55 284.55-7.45 285.55-5.35 287.59-4.21 289.62-3.08 292.77-3.08L292.77-3.08Q293.95-3.08 295.26-3.26 296.57-3.45 297.86-3.85 299.15-4.25 300.32-4.9L300.32-4.9 300.5-1.18Q299.55-0.65 298.3-0.26 297.05 0.13 295.55 0.34 294.05 0.55 292.37 0.55ZM300.77-11.58L281.1-11.58 281.1-14.53 298.25-14.68 300.77-13.73 300.77-11.58ZM315.45 10.15L315.45 10.15Q312.67 10.15 310.82 9.65 308.97 9.15 307.9 8.3 306.82 7.45 306.36 6.41 305.9 5.38 305.9 4.3L305.9 4.3Q305.9 2.63 306.72 1.49 307.55 0.35 308.65-0.3 309.75-0.95 310.57-1.2L310.57-1.2 310.57-1.55Q310.15-1.68 309.55-2.09 308.95-2.5 308.47-3.25 308-4 308-5.15L308-5.15Q308-6.03 308.33-6.78 308.67-7.53 309.37-8.1 310.07-8.68 311.1-9.1L311.1-9.1 311.1-9.47Q310.52-9.68 309.62-10.23 308.72-10.78 307.81-11.71 306.9-12.65 306.27-14.03 305.65-15.4 305.65-17.28L305.65-17.28Q305.65-19.7 306.83-21.53 308.02-23.35 310.21-24.36 312.4-25.38 315.35-25.38L315.35-25.38Q316.55-25.38 317.43-25.25 318.32-25.13 319.27-24.99 320.22-24.85 321.6-24.85L321.6-24.85 329.32-24.85 329.32-21.75Q326.85-21.75 324.5-21.75 322.15-21.75 319.77-21.75L319.77-21.75 320.95-23.7Q323.15-22.65 324.11-20.91 325.07-19.18 325.07-17L325.07-17Q325.07-14.55 324.07-12.86 323.07-11.18 321.25-10.14 319.42-9.1 317-8.55L317-8.55Q314.37-7.93 313.1-7.41 311.82-6.9 311.82-5.88L311.82-5.88Q311.82-5.15 312.35-4.75 312.87-4.35 314.01-4.17 315.15-4 317.02-4L317.02-4 318.1-4Q321.55-4 323.75-3.46 325.95-2.93 327.01-1.68 328.07-0.43 328.07 1.65L328.07 1.65Q328.07 3.8 326.95 5.41 325.82 7.03 323.95 8.08 322.07 9.13 319.86 9.64 317.65 10.15 315.45 10.15ZM315.8 6.8L315.8 6.8Q318.55 6.8 320.41 6.04 322.27 5.28 323.2 4.23 324.12 3.18 324.12 2.27L324.12 2.27Q324.12 1.33 323.57 0.7 323.02 0.08 321.52-0.24 320.02-0.55 317.17-0.55L317.17-0.55 316.25-0.55Q314.65-0.53 313.15-0.03 311.65 0.48 310.68 1.36 309.72 2.25 309.72 3.43L309.72 3.43Q309.72 4.08 310.03 4.69 310.35 5.3 311.06 5.78 311.77 6.25 312.93 6.53 314.1 6.8 315.8 6.8ZM315.07-11.48L315.07-11.48Q316-11.63 317.06-11.94 318.12-12.25 319.06-12.83 320-13.4 320.6-14.35 321.2-15.3 321.2-16.75L321.2-16.75Q321.2-18.55 320.27-19.68 319.35-20.8 317.98-21.34 316.62-21.88 315.35-21.88L315.35-21.88Q313.82-21.88 312.5-21.34 311.17-20.8 310.35-19.71 309.52-18.63 309.52-16.98L309.52-16.98Q309.52-15.33 310.33-14.18 311.15-13.03 312.41-12.35 313.67-11.68 315.07-11.48ZM345.84 0.55L345.84 0.55Q341.39 0.55 338.52-1.15 335.64-2.85 334.24-5.8 332.84-8.75 332.84-12.55L332.84-12.55Q332.84-16.3 334.22-19.2 335.59-22.1 338.17-23.74 340.74-25.38 344.32-25.38L344.32-25.38Q347.47-25.38 349.73-24.15 351.99-22.93 353.22-20.56 354.44-18.2 354.44-14.73L354.44-14.73Q354.44-13.8 354.41-13.06 354.37-12.33 354.24-11.58L354.24-11.58 350.62-13.4Q350.67-13.8 350.68-14.16 350.69-14.53 350.69-14.88L350.69-14.88Q350.69-18.4 348.94-20.24 347.19-22.08 344.37-22.08L344.37-22.08Q342.09-22.08 340.46-20.91 338.82-19.75 337.92-17.7 337.02-15.65 337.02-13.03L337.02-13.03 337.02-12.45Q337.02-9.55 338.02-7.45 339.02-5.35 341.06-4.21 343.09-3.08 346.24-3.08L346.24-3.08Q347.42-3.08 348.73-3.26 350.04-3.45 351.33-3.85 352.62-4.25 353.79-4.9L353.79-4.9 353.97-1.18Q353.02-0.65 351.77-0.26 350.52 0.13 349.02 0.34 347.52 0.55 345.84 0.55ZM354.24-11.58L334.57-11.58 334.57-14.53 351.72-14.68 354.24-13.73 354.24-11.58ZM365.14 0L361.02 0Q361.02-2.78 361.02-5.33 361.02-7.88 361.02-10.95L361.02-10.95 361.02-13.45Q361.02-16.2 361.02-19.07 361.02-21.95 361.02-24.8L361.02-24.8 364.62-25.05 364.74-20 365.17-20Q366.19-22.28 367.53-23.44 368.87-24.6 370.24-25 371.62-25.4 372.77-25.4L372.77-25.4Q373.47-25.4 374.17-25.3 374.87-25.2 375.49-24.98L375.49-24.98 375.12-20.83Q374.29-20.98 373.63-21.08 372.97-21.18 372.09-21.18L372.09-21.18Q371.37-21.18 370.45-20.96 369.54-20.75 368.58-20.09 367.62-19.43 366.72-18.11 365.82-16.8 365.14-14.63L365.14-14.63 365.14-10.78Q365.14-7.85 365.14-5.31 365.14-2.78 365.14 0L365.14 0ZM385.19 0L381.04 0Q381.04-2.78 381.04-5.33 381.04-7.88 381.04-10.95L381.04-10.95 381.04-13.45Q381.04-15.68 381.04-17.56 381.04-19.45 381.04-21.21 381.04-22.98 381.04-24.8L381.04-24.8 385.19-24.95Q385.19-23.1 385.19-21.31 385.19-19.53 385.19-17.61 385.19-15.7 385.19-13.45L385.19-13.45 385.19-10.95Q385.19-7.88 385.19-5.33 385.19-2.78 385.19 0L385.19 0ZM383.04-30.53L383.04-30.53Q381.69-30.53 380.84-31.28 379.99-32.02 379.99-33.58L379.99-33.58Q379.99-35.1 380.84-35.86 381.69-36.63 383.09-36.63L383.09-36.63Q384.46-36.63 385.29-35.84 386.11-35.05 386.11-33.58L386.11-33.58Q386.11-32.02 385.29-31.28 384.46-30.53 383.04-30.53ZM417.41 0L412.88 0Q412.88-2.98 412.88-5.73 412.88-8.47 412.88-11.78L412.88-11.78 412.88-23.08Q412.88-26.43 412.88-29.21 412.88-32 412.88-35L412.88-35 414.68-31.63 410.46-31.63Q407.43-31.63 405.1-31.63 402.76-31.63 400.66-31.63L400.66-31.63 400.66-35.65 429.61-35.65 429.61-31.63Q427.51-31.63 425.18-31.63 422.86-31.63 419.81-31.63L419.81-31.63 415.58-31.63 417.41-35Q417.41-32 417.41-29.21 417.41-26.43 417.41-23.08L417.41-23.08 417.41-11.78Q417.41-8.47 417.41-5.73 417.41-2.98 417.41 0L417.41 0ZM441.26 0.5L441.26 0.5Q439.03 0.5 437.36-0.36 435.68-1.23 434.74-2.83 433.81-4.42 433.81-6.68L433.81-6.68Q433.81-8.7 434.53-10.09 435.26-11.48 436.43-12.35 437.61-13.23 439.03-13.71 440.46-14.2 441.88-14.45L441.88-14.45 449.66-15.8Q449.76-18.32 448.99-19.61 448.23-20.9 446.86-21.35 445.48-21.8 443.81-21.8L443.81-21.8Q442.96-21.8 441.98-21.68 441.01-21.55 439.92-21.29 438.83-21.03 437.63-20.63 436.43-20.23 435.11-19.65L435.11-19.65 434.88-23.43Q435.78-23.8 436.92-24.15 438.06-24.5 439.34-24.79 440.63-25.08 441.98-25.23 443.33-25.38 444.71-25.38L444.71-25.38Q447.48-25.38 449.49-24.5 451.51-23.63 452.58-21.75 453.66-19.88 453.66-16.85L453.66-16.85Q453.66-15.7 453.66-13.93 453.66-12.15 453.66-10.55L453.66-10.55 453.66-7.33Q453.66-5.63 453.66-3.86 453.66-2.1 453.66 0L453.66 0 449.91 0 449.68-3.53 449.28-3.53Q448.51-2.53 447.33-1.6 446.16-0.68 444.62-0.09 443.08 0.5 441.26 0.5ZM442.46-2.93L442.46-2.93Q443.78-2.93 445.11-3.48 446.43-4.03 447.59-5.11 448.76-6.2 449.56-7.85L449.56-7.85 449.58-13.2Q449.18-12.98 448.52-12.75 447.86-12.53 446.54-12.24 445.23-11.95 442.91-11.53L442.91-11.53Q441.48-11.28 440.38-10.71 439.28-10.15 438.64-9.19 438.01-8.22 438.01-6.85L438.01-6.85Q438.01-4.7 439.29-3.81 440.58-2.93 442.46-2.93ZM465.73 0L461.6 0Q461.6-2.78 461.6-5.33 461.6-7.88 461.6-10.95L461.6-10.95 461.6-13.45Q461.6-16.2 461.6-19.07 461.6-21.95 461.6-24.8L461.6-24.8 465.2-25.05 465.33-20.45 465.78-20.45Q466.58-21.58 467.83-22.73 469.08-23.88 470.78-24.64 472.48-25.4 474.68-25.4L474.68-25.4Q478.63-25.4 480.45-23.13 482.28-20.85 482.28-16.53L482.28-16.53Q482.28-14.9 482.28-13.65 482.28-12.4 482.28-10.95L482.28-10.95Q482.28-8 482.28-5.39 482.28-2.78 482.28 0L482.28 0 478.15 0Q478.15-2.78 478.15-5.36 478.15-7.95 478.15-10.78L478.15-10.78 478.15-15.48Q478.15-18.45 477.09-19.98 476.03-21.5 473.25-21.5L473.25-21.5Q471.58-21.5 470.2-20.83 468.83-20.15 467.72-19.01 466.6-17.88 465.73-16.5L465.73-16.5 465.73-10.78Q465.73-7.85 465.73-5.31 465.73-2.78 465.73 0L465.73 0ZM496.05 0.5L496.05 0.5Q493.83 0.5 492.15-0.36 490.48-1.23 489.54-2.83 488.6-4.42 488.6-6.68L488.6-6.68Q488.6-8.7 489.33-10.09 490.05-11.48 491.23-12.35 492.4-13.23 493.83-13.71 495.25-14.2 496.68-14.45L496.68-14.45 504.45-15.8Q504.55-18.32 503.79-19.61 503.03-20.9 501.65-21.35 500.28-21.8 498.6-21.8L498.6-21.8Q497.75-21.8 496.78-21.68 495.8-21.55 494.71-21.29 493.63-21.03 492.43-20.63 491.23-20.23 489.9-19.65L489.9-19.65 489.68-23.43Q490.58-23.8 491.71-24.15 492.85-24.5 494.14-24.79 495.43-25.08 496.78-25.23 498.13-25.38 499.5-25.38L499.5-25.38Q502.28-25.38 504.29-24.5 506.3-23.63 507.38-21.75 508.45-19.88 508.45-16.85L508.45-16.85Q508.45-15.7 508.45-13.93 508.45-12.15 508.45-10.55L508.45-10.55 508.45-7.33Q508.45-5.63 508.45-3.86 508.45-2.1 508.45 0L508.45 0 504.7 0 504.48-3.53 504.08-3.53Q503.3-2.53 502.13-1.6 500.95-0.68 499.41-0.09 497.88 0.5 496.05 0.5ZM497.25-2.93L497.25-2.93Q498.58-2.93 499.9-3.48 501.23-4.03 502.39-5.11 503.55-6.2 504.35-7.85L504.35-7.85 504.38-13.2Q503.98-12.98 503.31-12.75 502.65-12.53 501.34-12.24 500.03-11.95 497.7-11.53L497.7-11.53Q496.28-11.28 495.18-10.71 494.08-10.15 493.44-9.19 492.8-8.22 492.8-6.85L492.8-6.85Q492.8-4.7 494.09-3.81 495.38-2.93 497.25-2.93ZM539.97 0L535.45 0Q535.45-2.98 535.45-5.73 535.45-8.47 535.45-11.78L535.45-11.78 535.45-23.08Q535.45-26.43 535.45-29.21 535.45-32 535.45-35L535.45-35 537.25-31.63 533.02-31.63Q530-31.63 527.66-31.63 525.32-31.63 523.22-31.63L523.22-31.63 523.22-35.65 552.17-35.65 552.17-31.63Q550.07-31.63 547.75-31.63 545.42-31.63 542.37-31.63L542.37-31.63 538.15-31.63 539.97-35Q539.97-32 539.97-29.21 539.97-26.43 539.97-23.08L539.97-23.08 539.97-11.78Q539.97-8.47 539.97-5.73 539.97-2.98 539.97 0L539.97 0ZM568.74 0.55L568.74 0.55Q565.67 0.55 563.33-0.51 560.99-1.58 559.42-3.4 557.84-5.23 557.03-7.59 556.22-9.95 556.22-12.55L556.22-12.55Q556.22-16.28 557.73-19.16 559.24-22.05 562.03-23.73 564.82-25.4 568.67-25.4L568.67-25.4Q571.64-25.4 573.94-24.43 576.24-23.45 577.84-21.7 579.44-19.95 580.27-17.61 581.09-15.28 581.09-12.55L581.09-12.55Q581.09-8.88 579.59-5.9 578.09-2.93 575.33-1.19 572.57 0.55 568.74 0.55ZM568.74-3.05L568.74-3.05Q571.47-3.05 573.27-4.4 575.07-5.75 575.97-7.93 576.87-10.1 576.87-12.55L576.87-12.55Q576.87-15.35 575.87-17.43 574.87-19.5 573.04-20.65 571.22-21.8 568.72-21.8L568.72-21.8Q566.02-21.8 564.17-20.58 562.32-19.35 561.38-17.25 560.44-15.15 560.44-12.55L560.44-12.55Q560.44-10.1 561.36-7.93 562.27-5.75 564.12-4.4 565.97-3.05 568.74-3.05ZM592.01 0L587.89 0Q587.89-2.78 587.89-5.33 587.89-7.88 587.89-10.95L587.89-10.95 587.89-13.45Q587.89-16.2 587.89-19.07 587.89-21.95 587.89-24.8L587.89-24.8 591.49-25.05 591.61-20 592.04-20Q593.06-22.28 594.4-23.44 595.74-24.6 597.11-25 598.49-25.4 599.64-25.4L599.64-25.4Q600.34-25.4 601.04-25.3 601.74-25.2 602.36-24.98L602.36-24.98 601.99-20.83Q601.16-20.98 600.5-21.08 599.84-21.18 598.96-21.18L598.96-21.18Q598.24-21.18 597.33-20.96 596.41-20.75 595.45-20.09 594.49-19.43 593.59-18.11 592.69-16.8 592.01-14.63L592.01-14.63 592.01-10.78Q592.01-7.85 592.01-5.31 592.01-2.78 592.01 0L592.01 0ZM613.66 0.5L613.66 0.5Q611.44 0.5 609.76-0.36 608.09-1.23 607.15-2.83 606.21-4.42 606.21-6.68L606.21-6.68Q606.21-8.7 606.94-10.09 607.66-11.48 608.84-12.35 610.01-13.23 611.44-13.71 612.86-14.2 614.29-14.45L614.29-14.45 622.06-15.8Q622.16-18.32 621.4-19.61 620.64-20.9 619.26-21.35 617.89-21.8 616.21-21.8L616.21-21.8Q615.36-21.8 614.39-21.68 613.41-21.55 612.32-21.29 611.24-21.03 610.04-20.63 608.84-20.23 607.51-19.65L607.51-19.65 607.29-23.43Q608.19-23.8 609.32-24.15 610.46-24.5 611.75-24.79 613.04-25.08 614.39-25.23 615.74-25.38 617.11-25.38L617.11-25.38Q619.89-25.38 621.9-24.5 623.91-23.63 624.99-21.75 626.06-19.88 626.06-16.85L626.06-16.85Q626.06-15.7 626.06-13.93 626.06-12.15 626.06-10.55L626.06-10.55 626.06-7.33Q626.06-5.63 626.06-3.86 626.06-2.1 626.06 0L626.06 0 622.31 0 622.09-3.53 621.69-3.53Q620.91-2.53 619.74-1.6 618.56-0.68 617.02-0.09 615.49 0.5 613.66 0.5ZM614.86-2.93L614.86-2.93Q616.19-2.93 617.51-3.48 618.84-4.03 620-5.11 621.16-6.2 621.96-7.85L621.96-7.85 621.99-13.2Q621.59-12.98 620.92-12.75 620.26-12.53 618.95-12.24 617.64-11.95 615.31-11.53L615.31-11.53Q613.89-11.28 612.79-10.71 611.69-10.15 611.05-9.19 610.41-8.22 610.41-6.85L610.41-6.85Q610.41-4.7 611.7-3.81 612.99-2.93 614.86-2.93ZM634.38 9.6L629.96 9.75Q631.41 8.18 632.32 6.54 633.23 4.9 633.65 2.96 634.06 1.03 634.06-1.53L634.06-1.53 634.06-10.95 634.06-13.45Q634.06-15.68 634.06-17.56 634.06-19.45 634.06-21.21 634.06-22.98 634.06-24.8L634.06-24.8 638.21-24.95Q638.21-23.1 638.21-21.31 638.21-19.53 638.21-17.61 638.21-15.7 638.21-13.45L638.21-13.45Q638.21-10.55 638.21-8.38 638.21-6.2 638.21-4.42 638.21-2.65 638.21-0.95L638.21-0.95Q638.21 0.93 637.95 2.5 637.68 4.08 637.17 5.38 636.66 6.68 635.96 7.73 635.26 8.78 634.38 9.6L634.38 9.6ZM636.06-30.53L636.06-30.53Q634.71-30.53 633.86-31.28 633.01-32.02 633.01-33.58L633.01-33.58Q633.01-35.1 633.86-35.86 634.71-36.63 636.11-36.63L636.11-36.63Q637.48-36.63 638.31-35.84 639.13-35.05 639.13-33.58L639.13-33.58Q639.13-32.02 638.31-31.28 637.48-30.53 636.06-30.53ZM652.56 0.5L652.56 0.5Q650.33 0.5 648.66-0.36 646.98-1.23 646.04-2.83 645.11-4.42 645.11-6.68L645.11-6.68Q645.11-8.7 645.83-10.09 646.56-11.48 647.73-12.35 648.91-13.23 650.33-13.71 651.76-14.2 653.18-14.45L653.18-14.45 660.96-15.8Q661.06-18.32 660.29-19.61 659.53-20.9 658.16-21.35 656.78-21.8 655.11-21.8L655.11-21.8Q654.26-21.8 653.28-21.68 652.31-21.55 651.22-21.29 650.13-21.03 648.93-20.63 647.73-20.23 646.41-19.65L646.41-19.65 646.18-23.43Q647.08-23.8 648.22-24.15 649.36-24.5 650.64-24.79 651.93-25.08 653.28-25.23 654.63-25.38 656.01-25.38L656.01-25.38Q658.78-25.38 660.79-24.5 662.81-23.63 663.88-21.75 664.96-19.88 664.96-16.85L664.96-16.85Q664.96-15.7 664.96-13.93 664.96-12.15 664.96-10.55L664.96-10.55 664.96-7.33Q664.96-5.63 664.96-3.86 664.96-2.1 664.96 0L664.96 0 661.21 0 660.98-3.53 660.58-3.53Q659.81-2.53 658.63-1.6 657.46-0.68 655.92-0.09 654.38 0.5 652.56 0.5ZM653.76-2.93L653.76-2.93Q655.08-2.93 656.41-3.48 657.73-4.03 658.89-5.11 660.06-6.2 660.86-7.85L660.86-7.85 660.88-13.2Q660.48-12.98 659.82-12.75 659.16-12.53 657.84-12.24 656.53-11.95 654.21-11.53L654.21-11.53Q652.78-11.28 651.68-10.71 650.58-10.15 649.94-9.19 649.31-8.22 649.31-6.85L649.31-6.85Q649.31-4.7 650.59-3.81 651.88-2.93 653.76-2.93Z" opacity="1" transform="matrix(1,0,0,1,0,0)" fill="#374151" class="slogan-text-1" data-fill-palette-color="secondary" id="text-1"></path></svg></g></svg></g></svg></g></svg></g><g><svg viewBox="0 0 96.30881701627399 76.82670124320965" height="76.82670124320965" width="96.30881701627399"><g><svg version="1.1" xmlns="http://www.w3.org/2000/svg" xmlns:xlink="http://www.w3.org/1999/xlink" x="0" y="0" viewBox="0 0 100.001 79.772" enable-background="new 0 0 100 79.772" xml:space="preserve" id="icon-0" width="96.30881701627399" height="76.82670124320965" class="icon-icon-0" data-fill-palette-color="accent"><g fill="#0d7dff" data-fill-palette-color="accent"><path fill="#0d7dff" d="M82.521 9.008H63.677C61.396 3.711 56.133 0 50 0S38.604 3.711 36.325 9.008H17.479A5.802 5.802 0 0 0 17.479 20.611H36.259C38.502 25.99 43.807 29.772 49.999 29.772S61.497 25.99 63.74 20.611H82.52A5.8 5.8 0 0 0 88.322 14.81 5.8 5.8 0 0 0 82.521 9.008M53.818 14.504A3.817 3.817 0 1 1 46.184 14.502 3.817 3.817 0 0 1 53.818 14.504" data-fill-palette-color="accent"></path><g fill="#0d7dff" data-fill-palette-color="accent"><path fill="#0d7dff" d="M25.039 23.665H18.779L0 57.558C0 69.826 9.946 79.772 22.214 79.772S44.428 69.826 44.428 57.558zM22.214 26.565L37.634 53.856H6.336z" data-fill-palette-color="accent"></path><path fill="#0d7dff" d="M80.613 23.665H74.352L55.573 57.558C55.573 69.826 65.519 79.772 77.787 79.772 90.056 79.772 100.001 69.826 100.001 57.558zM77.787 26.565L93.208 53.856H61.91z" data-fill-palette-color="accent"></path></g></g></svg></g></svg></g></svg></g><defs></defs></svg><rect width="395.52" height="60.69234594544357" fill="none" stroke="none" visibility="hidden"></rect></g></svg></g></svg>