<?xml version="1.0" standalone="no"?>
<!DOCTYPE svg PUBLIC "-//W3C//DTD SVG 20010904//EN"
 "http://www.w3.org/TR/2001/REC-SVG-20010904/DTD/svg10.dtd">
<svg version="1.0" xmlns="http://www.w3.org/2000/svg"
 width="480.000000pt" height="495.000000pt" viewBox="0 0 480.000000 495.000000"
 preserveAspectRatio="xMidYMid meet">

<g transform="translate(0.000000,495.000000) scale(0.100000,-0.100000)"
fill="#000000" stroke="none">
<path d="M1074 4793 l-39 -158 -122 -119 c-68 -65 -123 -122 -123 -127 0 -15
28 -10 167 31 75 22 145 40 155 40 11 0 89 -19 174 -42 84 -23 157 -38 161
-34 5 5 -45 59 -110 121 l-118 112 -43 164 c-23 89 -47 164 -53 166 -6 2 -27
-63 -49 -154z m87 -57 l33 -128 93 -91 c51 -50 92 -92 90 -93 -2 -2 -61 13
-132 33 l-128 36 -115 -33 c-63 -17 -122 -34 -131 -37 -9 -3 30 41 86 98 l102
104 21 85 c34 138 41 162 44 159 2 -2 18 -62 37 -133z"/>
<path d="M2354 4790 l-38 -161 -125 -122 c-90 -85 -121 -122 -109 -124 9 -2
79 14 155 36 76 23 147 41 158 41 10 0 88 -19 172 -42 84 -23 156 -38 160 -34
5 4 -45 59 -109 122 l-118 113 -42 162 c-24 89 -48 164 -55 166 -7 3 -25 -53
-49 -157z m86 -50 l33 -125 96 -99 c53 -54 88 -96 79 -93 -10 4 -71 20 -137
38 l-119 31 -123 -36 c-67 -19 -124 -34 -126 -32 -2 1 42 47 97 100 l101 98
25 106 c28 122 35 145 39 140 2 -2 18 -59 35 -128z"/>
<path d="M3636 4793 l-38 -158 -121 -122 c-67 -67 -118 -125 -114 -129 4 -4
72 12 151 34 80 23 153 42 163 42 10 0 87 -18 170 -42 84 -23 156 -38 160 -35
4 4 -47 62 -113 130 l-119 122 -40 158 c-21 86 -44 157 -50 157 -6 0 -28 -71
-49 -157z m89 -63 l28 -115 96 -99 c53 -54 88 -96 79 -93 -9 3 -69 20 -133 38
l-117 32 -126 -36 c-69 -20 -127 -35 -129 -34 -1 2 41 45 96 95 l98 91 33 132
c19 76 36 126 40 118 4 -8 20 -66 35 -129z"/>
<path d="M2260 4056 c-3 -2 -77 -12 -165 -21 -246 -26 -342 -56 -428 -134 -37
-33 -115 -91 -157 -116 -11 -7 -10 -1 4 20 11 17 26 41 35 55 8 14 30 44 49
68 34 43 36 67 4 45 -9 -7 -60 -39 -112 -72 -118 -74 -175 -123 -199 -170 -11
-20 -31 -88 -46 -151 -15 -63 -36 -128 -46 -145 -21 -33 -24 -30 -9 10 5 14
17 71 25 128 9 56 22 121 30 144 7 24 10 45 5 48 -10 6 -152 -205 -181 -269
-14 -33 -21 -68 -20 -110 1 -125 -20 -321 -43 -396 l-23 -75 -17 52 c-15 46
-16 54 -2 75 8 13 19 41 25 63 12 48 16 365 5 366 -5 1 -35 -61 -68 -136 -70
-165 -82 -236 -48 -307 12 -23 35 -83 52 -132 28 -78 31 -96 25 -155 -4 -36
-9 -75 -12 -85 -12 -42 -35 34 -37 123 -2 70 -9 105 -40 191 -20 58 -41 123
-44 145 -13 69 -26 44 -39 -70 -22 -209 -11 -292 47 -351 16 -17 48 -71 70
-119 37 -80 40 -93 39 -168 -2 -80 -2 -81 -9 -27 -9 68 -32 114 -126 253 -41
59 -74 112 -74 117 0 6 -7 10 -16 10 -11 0 -14 -5 -9 -17 3 -10 11 -43 16 -73
35 -201 62 -275 122 -327 40 -35 111 -137 121 -173 6 -23 6 -23 -5 -5 -22 37
-73 87 -159 153 -47 36 -99 79 -116 95 -18 16 -34 25 -37 20 -6 -11 108 -219
153 -280 23 -32 53 -57 90 -75 80 -39 117 -83 161 -188 33 -81 35 -90 16 -77
-12 8 -34 38 -49 66 -34 68 -46 81 -148 159 -47 36 -102 81 -122 101 -71 66
-57 21 55 -174 49 -85 111 -148 166 -166 57 -19 198 -141 248 -213 23 -33 40
-62 38 -64 -10 -10 -76 37 -118 84 -38 42 -73 65 -170 115 -67 34 -134 70
-149 80 -64 45 -50 14 43 -98 120 -146 181 -193 252 -193 21 0 76 -21 143 -54
82 -41 122 -68 163 -110 l55 -55 -40 5 c-21 3 -50 15 -64 25 -74 57 -110 74
-241 118 -79 26 -152 51 -161 55 -35 16 -18 -19 25 -52 23 -18 74 -60 112 -93
101 -88 134 -103 230 -105 176 -2 195 -8 311 -95 94 -70 102 -79 76 -79 -16 0
-35 6 -41 14 -26 31 -112 56 -243 71 -74 8 -148 18 -166 21 -55 11 -35 -9 66
-67 191 -111 167 -104 347 -104 188 0 196 -3 306 -117 70 -72 116 -98 174 -98
46 0 84 20 167 86 37 30 70 54 73 54 4 0 30 -20 58 -43 87 -74 128 -97 170
-97 64 0 130 43 259 168 l77 75 53 -23 c63 -27 197 -32 288 -11 131 31 280
133 280 191 0 11 4 20 9 20 5 0 19 16 31 36 17 26 21 45 17 74 l-5 39 56 16
c31 9 83 30 115 47 95 48 198 155 184 192 -3 7 6 30 19 52 35 57 32 99 -10
139 l-34 32 35 18 c90 49 172 198 173 315 0 19 7 53 15 75 8 22 14 63 15 91 0
61 -31 104 -76 104 l-28 0 26 28 c86 91 108 277 49 414 -10 24 -22 59 -26 78
-16 73 -66 111 -119 90 -37 -14 -39 -13 -54 10 -10 17 -9 29 4 71 31 94 -3
234 -75 308 -17 17 -31 36 -31 40 0 5 -14 22 -31 39 -34 34 -77 46 -113 32
-22 -8 -25 -6 -31 28 -15 84 -84 163 -184 211 -31 15 -72 37 -91 49 -46 29
-71 28 -100 -3 -32 -34 -46 -32 -66 10 -23 48 -81 98 -160 136 -66 32 -68 32
-136 21 -96 -17 -148 -15 -285 9 -65 11 -133 23 -152 26 -55 10 -33 -17 30
-36 100 -32 175 -79 256 -165 76 -79 140 -136 154 -136 3 0 33 -16 65 -35 34
-21 71 -35 90 -35 26 0 33 -5 38 -25 4 -16 22 -33 49 -47 23 -13 42 -29 42
-37 0 -8 11 -18 25 -21 14 -4 54 -27 90 -52 36 -25 74 -48 85 -52 17 -5 20
-13 17 -41 -3 -27 2 -44 21 -69 15 -18 23 -36 20 -40 -4 -4 2 -13 14 -21 11
-8 39 -45 61 -83 43 -71 94 -125 132 -137 21 -7 20 -9 -15 -38 l-38 -31 6 -73
5 -73 -29 0 c-34 0 -36 -12 -10 -46 11 -14 32 -62 46 -107 15 -45 38 -101 51
-124 28 -49 29 -53 9 -53 -8 0 -24 -15 -36 -32 -16 -27 -19 -43 -15 -85 4 -31
2 -54 -4 -58 -6 -4 -8 -16 -4 -27 3 -11 3 -66 -1 -124 l-7 -104 -35 0 c-26 0
-43 -8 -69 -34 -19 -19 -34 -42 -34 -51 0 -11 -5 -15 -15 -11 -8 3 -22 9 -30
12 -9 4 -15 1 -15 -8 0 -8 -26 -45 -58 -82 -41 -47 -66 -87 -82 -132 -13 -39
-28 -64 -37 -64 -31 0 -74 -33 -106 -80 -33 -49 -34 -50 -52 -30 -20 23 -45
27 -45 7 0 -7 -27 -39 -61 -72 -71 -71 -111 -137 -135 -223 -15 -54 -16 -71
-6 -109 12 -43 11 -46 -18 -82 -46 -59 -153 -155 -192 -174 -52 -24 -106 -6
-179 60 l-39 36 42 36 c132 114 206 172 245 191 24 12 41 26 38 31 -4 5 -50 9
-105 9 -96 0 -99 -1 -137 -33 -21 -18 -63 -59 -94 -91 l-55 -58 -90 91 -90 91
-107 0 c-59 0 -107 -4 -107 -9 0 -5 24 -23 53 -39 49 -28 227 -171 256 -206
12 -14 11 -20 -9 -41 -33 -35 -118 -75 -159 -75 -19 0 -54 11 -78 26 -36 20
-51 39 -84 106 -35 70 -41 92 -43 152 -2 52 -8 83 -25 116 -36 68 -155 249
-165 250 -5 0 -5 -15 -2 -32 4 -18 18 -92 31 -165 16 -92 31 -146 50 -182 16
-28 32 -51 36 -51 5 0 18 -18 29 -41 19 -37 19 -39 3 -31 -10 6 -58 55 -107
110 l-89 101 2 65 c3 76 -13 118 -107 278 -59 101 -79 120 -68 66 4 -18 13
-85 21 -148 7 -64 17 -129 21 -145 9 -41 39 -99 58 -114 29 -24 16 -32 -14 -9
-17 12 -47 51 -66 85 -33 59 -35 66 -23 100 7 22 9 61 6 102 -7 68 -78 303
-95 309 -11 3 -27 -178 -27 -310 1 -81 -2 -96 -13 -85 -7 8 -20 42 -28 77 -13
57 -13 67 2 107 12 30 15 60 12 101 -6 59 -86 322 -98 322 -7 0 -13 -65 -26
-270 -6 -93 -4 -105 31 -195 4 -11 -6 -1 -24 23 -22 30 -39 72 -58 151 l-27
108 21 29 c34 48 43 101 43 267 0 126 -3 157 -14 157 -7 0 -16 -13 -19 -29 -4
-17 -27 -83 -53 -148 -27 -69 -50 -143 -54 -178 l-6 -60 -13 41 c-12 36 -11
49 9 120 13 45 32 90 45 104 48 50 58 94 63 264 3 112 1 160 -7 165 -8 5 -5
34 10 107 12 54 22 110 21 124 0 13 20 69 44 124 24 55 42 102 39 104 -4 5
-152 -126 -218 -192 -22 -22 -48 -53 -58 -70 -15 -24 -19 -27 -19 -12 0 11 21
52 47 92 40 60 54 74 81 79 21 4 51 24 81 53 51 50 185 265 183 295 0 9 3 17
8 17 13 0 193 220 186 228 -4 3 -15 1 -24 -6 -9 -7 -71 -38 -137 -70 -137 -67
-181 -101 -223 -175 -28 -49 -72 -100 -72 -82 0 4 20 46 45 94 l46 86 110 68
c75 45 120 67 142 67 46 1 109 32 162 81 66 61 189 199 182 205 -3 3 -27 -6
-53 -19 -27 -14 -93 -44 -147 -67 -110 -48 -167 -86 -192 -127 -9 -16 -40 -42
-68 -58 l-52 -29 43 52 c57 68 152 154 226 205 51 35 68 41 120 43 85 4 169
32 336 115 80 39 166 79 192 88 46 16 62 33 36 39 -8 1 -16 1 -18 -2z m-255
-116 c-147 -72 -233 -100 -312 -100 l-47 0 35 36 c60 63 163 103 315 123 162
20 162 16 9 -59z m823 24 c6 -2 58 2 115 8 85 10 107 9 132 -3 27 -13 30 -19
33 -68 3 -53 3 -53 -23 -47 -15 4 -36 4 -47 0 -17 -5 -20 -12 -15 -43 4 -36 3
-37 -35 -49 -35 -11 -42 -10 -68 8 -15 11 -52 47 -81 81 -29 33 -75 76 -103
95 l-51 34 65 -6 c36 -3 71 -7 78 -10z m-1294 -76 c-42 -70 -98 -152 -124
-182 -32 -36 -107 -82 -117 -72 -3 3 -3 20 1 39 9 48 68 112 161 173 88 59 89
59 79 42z m1895 -85 c27 -26 29 -32 24 -85 -5 -55 -6 -56 -28 -46 -13 6 -36 7
-51 4 -25 -7 -26 -10 -21 -50 6 -43 6 -43 -32 -56 -30 -10 -46 -10 -74 -1 -52
17 -63 35 -49 75 10 26 9 41 -4 79 -21 62 -14 81 29 74 17 -4 48 -9 68 -12 31
-6 36 -3 47 19 16 35 53 34 91 -1z m-1749 -129 c-36 -36 -83 -76 -105 -89 -46
-27 -110 -42 -119 -27 -8 14 39 69 86 98 37 24 173 82 193 83 5 1 -20 -29 -55
-65z m-495 -126 c-17 -99 -55 -192 -85 -208 -17 -9 -20 -6 -26 26 -9 51 16
124 72 213 26 39 48 70 51 67 2 -2 -3 -46 -12 -98z m145 58 c0 -3 -4 -8 -10
-11 -5 -3 -10 -1 -10 4 0 6 5 11 10 11 6 0 10 -2 10 -4z m2360 -89 c14 0 42 4
62 8 47 10 80 -10 108 -64 l20 -39 -39 -67 c-37 -63 -40 -66 -51 -45 -13 23
-75 54 -90 45 -6 -4 -15 -26 -21 -51 l-12 -45 -61 7 c-50 5 -66 11 -88 35 -35
36 -35 53 -3 83 21 20 25 32 25 80 0 32 5 66 10 77 10 18 12 18 63 -3 28 -11
63 -21 77 -21z m-2410 -16 c0 -6 -5 -13 -10 -16 -6 -4 -8 -15 -5 -25 4 -13 -1
-22 -16 -31 -20 -10 -21 -9 -15 7 4 11 10 31 13 47 5 25 33 40 33 18z m191
-90 c-72 -85 -119 -117 -204 -135 -28 -7 -28 -7 -13 22 8 16 32 44 52 62 37
32 193 114 202 105 3 -2 -14 -27 -37 -54z m-511 -310 c-6 -22 -19 -50 -29 -63
l-19 -23 -12 30 c-19 49 -7 141 31 235 l34 85 3 -113 c1 -62 -2 -130 -8 -151z
m169 207 c-27 -54 -29 -56 -29 -31 0 18 35 73 46 73 2 0 -5 -19 -17 -42z m241
-31 c0 -2 -37 -30 -82 -62 -46 -32 -96 -70 -112 -84 -45 -40 -27 -10 35 57 31
34 64 62 75 62 10 1 33 7 49 15 36 16 35 16 35 12z m-79 -146 c-44 -74 -115
-145 -157 -155 -39 -10 -42 1 -13 52 18 33 52 67 114 114 49 37 91 65 93 63 3
-2 -14 -36 -37 -74z m-201 9 c0 -10 5 -20 11 -22 5 -2 -1 -14 -15 -27 l-26
-24 0 51 c0 42 3 50 15 46 8 -4 15 -14 15 -24z m2819 -37 c20 -21 47 -51 59
-67 21 -28 25 -29 56 -18 48 17 62 15 85 -14 35 -44 27 -80 -27 -138 -26 -28
-58 -64 -70 -80 -12 -16 -23 -27 -25 -25 -1 2 -10 20 -19 39 -9 21 -30 43 -52
55 l-37 20 -19 -24 c-10 -14 -23 -42 -29 -63 l-12 -38 -42 16 c-53 21 -74 44
-82 92 -9 54 7 88 49 103 31 11 38 20 56 74 22 66 45 105 62 105 6 0 27 -17
47 -37z m-2815 -70 c-30 -59 -37 -66 -23 -22 10 28 36 69 44 69 1 0 -8 -21
-21 -47z m-244 -98 c23 -66 32 -106 31 -150 -2 -113 -6 -118 -48 -53 -24 35
-29 54 -32 125 -3 75 5 180 14 171 1 -1 17 -43 35 -93z m375 -32 c-38 -87 -90
-157 -136 -182 -22 -13 -43 -20 -46 -17 -4 3 -1 25 6 48 10 33 33 63 99 126
47 45 89 82 93 82 5 0 -3 -26 -16 -57z m-208 -58 c-12 -18 -25 -31 -29 -29
-11 7 -10 34 1 34 5 0 11 9 14 20 3 13 11 18 21 14 13 -5 12 -10 -7 -39z m117
-137 c-4 -7 -20 -29 -36 -49 -54 -70 -88 -148 -88 -200 0 -27 -4 -49 -10 -49
-22 0 -10 97 23 179 29 70 40 86 73 106 47 28 47 28 38 13z m39 -55 c-27 -122
-86 -223 -131 -223 -21 0 -8 71 24 130 24 44 110 160 118 160 2 0 -3 -30 -11
-67z m-369 -68 c69 -95 96 -155 96 -210 l0 -46 -27 21 c-44 34 -73 86 -92 163
-22 89 -32 137 -27 137 3 0 25 -29 50 -65z m178 -34 l-17 -50 -14 26 c-11 23
-11 27 3 35 9 5 16 16 16 23 0 8 6 15 14 15 12 0 11 -8 -2 -49z m3040 -57 l39
-84 43 2 c24 1 51 -4 60 -11 25 -21 30 -75 11 -135 -16 -49 -22 -57 -54 -67
-20 -6 -57 -22 -83 -35 -26 -13 -49 -24 -51 -24 -3 0 -7 18 -10 41 -6 42 -30
79 -54 79 -7 0 -30 -15 -50 -34 l-38 -34 -54 50 c-51 47 -55 54 -59 104 -6 68
13 94 68 94 34 0 41 5 76 55 38 56 90 98 107 88 5 -3 27 -43 49 -89z m-2844
-123 c-4 -94 -8 -114 -31 -153 -15 -25 -33 -48 -41 -51 -21 -8 -27 54 -11 117
15 56 74 196 83 196 2 0 3 -49 0 -109z m-76 17 c-30 -69 -37 -96 -38 -159 -1
-41 -5 -91 -10 -110 l-8 -34 -12 40 c-18 57 -17 92 6 189 18 74 26 92 58 121
20 19 38 35 39 35 1 0 -15 -37 -35 -82z m-285 -117 c74 -58 120 -111 130 -148
7 -31 0 -37 -32 -29 -41 10 -116 93 -159 175 -43 82 -40 82 61 2z m182 -18
c-5 -21 -9 -42 -9 -47 0 -10 -29 24 -30 35 0 6 39 49 44 49 2 0 0 -17 -5 -37z
m227 -199 c-6 -83 -17 -116 -51 -156 l-24 -28 -10 36 c-13 47 -1 110 41 213
l33 81 8 -37 c5 -21 6 -70 3 -109z m-301 -96 c48 -44 95 -121 82 -134 -12 -13
-59 8 -98 43 -35 32 -107 139 -126 189 -8 22 67 -30 142 -98z m121 62 c16 0
16 -2 8 -24 -5 -12 -10 -10 -29 12 -16 19 -20 29 -12 34 7 4 13 1 15 -7 2 -8
10 -15 18 -15z m2889 -1 c7 -20 2 -90 -12 -166 -5 -30 -3 -33 37 -49 66 -27
74 -74 24 -141 l-24 -32 -110 -3 c-69 -2 -110 1 -110 7 1 6 7 21 15 35 15 26
19 70 9 108 -8 29 -52 29 -113 2 -24 -11 -45 -19 -46 -18 -2 5 -46 121 -51
138 -6 20 28 75 59 95 22 14 28 14 68 -1 44 -17 45 -17 114 14 84 38 131 41
140 11z m-2600 -170 c15 -48 25 -104 25 -139 0 -59 -15 -110 -32 -110 -16 0
-40 72 -41 124 -1 56 13 206 18 206 2 0 16 -36 30 -81z m-253 -222 c15 -11 39
-38 53 -59 l25 -38 -28 0 c-66 0 -168 76 -244 182 -20 29 -19 29 73 -17 51
-26 105 -56 121 -68z m103 98 c9 0 22 -35 24 -64 1 -7 -16 2 -37 20 -26 24
-34 37 -27 45 5 7 15 9 20 6 6 -4 14 -7 20 -7z m305 -90 c25 -83 28 -166 8
-215 l-15 -35 -21 35 c-18 28 -22 51 -22 115 0 99 10 189 21 178 4 -4 17 -39
29 -78z m1864 -26 c24 -19 34 -20 125 -14 126 9 141 5 131 -38 -4 -18 -20 -61
-35 -97 l-27 -64 36 -29 c46 -37 49 -82 8 -127 l-27 -31 -65 10 c-36 6 -89 11
-118 11 l-53 0 20 28 c26 38 35 74 26 118 l-6 37 -49 -6 c-27 -3 -63 -13 -79
-22 -30 -15 -31 -15 -31 8 0 14 -7 44 -15 67 -15 41 -14 45 10 86 47 81 99
103 149 63z m-1702 -162 c24 -47 32 -75 32 -119 1 -31 -3 -60 -7 -65 -14 -13
-55 44 -72 99 -8 28 -17 87 -21 132 l-6 81 21 -33 c11 -17 35 -60 53 -95z
m-278 -15 c-1 -2 -13 2 -27 10 -21 11 -23 17 -15 38 l10 25 17 -35 c10 -19 16
-36 15 -38z m-209 -33 c92 -28 133 -50 174 -93 l35 -36 -50 0 c-33 0 -67 8
-101 25 -54 27 -182 139 -148 131 11 -3 52 -15 90 -27z m731 -122 c28 -61 34
-157 10 -157 -20 0 -50 46 -69 105 -13 41 -37 172 -37 202 0 14 71 -98 96
-150z m-351 13 c19 -37 19 -40 -5 -40 -12 0 -17 5 -14 13 3 8 -2 20 -11 27
-13 11 -13 15 -3 21 17 12 16 13 33 -21z m1138 -59 l28 -6 -50 -37 c-27 -21
-83 -67 -125 -103 -41 -36 -78 -65 -83 -65 -4 0 -14 9 -20 19 -11 17 -2 30 76
110 93 96 100 99 174 82z m-1106 -127 c56 -15 114 -57 100 -71 -5 -4 -35 -8
-67 -8 -50 1 -73 8 -155 49 -52 27 -95 51 -95 55 0 10 157 -7 217 -25z m265
-46 l19 -28 -25 0 c-17 0 -24 4 -20 14 3 7 -6 20 -20 30 -16 10 -23 22 -19 31
5 14 8 14 25 -2 11 -10 29 -30 40 -45z m196 -150 c81 -68 162 -60 276 27 52
39 82 38 44 -2 -38 -42 -144 -113 -176 -119 -44 -9 -111 26 -162 84 -59 68
-62 71 -54 83 3 6 13 -1 24 -18 9 -16 31 -41 48 -55z"/>
<path d="M2396 3992 c-3 -5 -22 -82 -41 -170 -33 -154 -35 -169 -35 -360 0
-109 -3 -201 -6 -205 -3 -3 -24 4 -46 15 -51 27 -96 26 -183 -3 -63 -20 -92
-23 -280 -26 l-210 -2 -3 -36 -3 -35 80 0 81 0 0 -37 c0 -28 -42 -125 -159
-368 l-158 -330 71 -105 71 -105 187 -3 187 -2 71 104 c38 58 70 108 70 111 0
3 -70 152 -155 330 -120 251 -155 334 -155 365 l0 40 270 0 270 0 0 -535 0
-535 -27 -6 c-48 -10 -85 -27 -115 -52 -28 -24 -58 -71 -58 -92 0 -13 77 -13
85 0 8 13 56 13 89 0 34 -12 35 -46 2 -54 -13 -3 -27 -13 -30 -22 -9 -22 11
-54 34 -54 28 0 25 -27 -4 -34 -26 -6 -39 -28 -30 -51 4 -8 17 -18 30 -21 28
-7 32 -34 5 -34 -46 0 -51 -63 -6 -74 33 -8 32 -22 -2 -38 -17 -8 -28 -21 -28
-33 0 -12 11 -25 28 -33 15 -7 27 -17 27 -22 0 -5 -12 -15 -27 -22 -17 -8 -28
-21 -28 -33 0 -12 11 -25 28 -33 15 -7 27 -17 27 -22 0 -5 -12 -15 -27 -22
-17 -8 -28 -21 -28 -33 0 -12 11 -25 28 -33 19 -9 27 -21 27 -38 0 -37 42 -74
83 -74 43 0 87 41 87 81 0 21 5 28 23 31 17 2 22 10 22 33 0 23 -5 31 -22 33
-15 2 -23 10 -23 22 0 12 8 20 23 22 17 2 22 10 22 33 0 23 -5 31 -22 33 -31
5 -29 30 3 42 34 13 31 63 -3 68 -30 4 -29 26 2 40 17 8 25 20 25 37 0 18 -7
26 -25 31 -31 8 -32 26 -2 39 13 6 23 21 25 37 3 22 -2 29 -22 34 -14 3 -26
12 -26 19 0 7 12 16 26 19 20 5 25 12 22 34 -2 16 -12 31 -25 37 -14 6 -23 19
-23 32 0 18 7 23 46 29 29 4 54 2 68 -6 13 -6 36 -10 52 -8 23 2 28 7 26 23
-9 53 -85 113 -164 130 l-28 5 0 535 0 535 270 0 270 0 0 -37 c0 -28 -40 -122
-155 -362 -85 -177 -155 -328 -155 -335 0 -7 30 -57 68 -111 l67 -100 187 -3
187 -2 71 106 72 106 -15 36 c-9 20 -79 169 -156 330 -107 222 -141 303 -141
332 l0 39 78 3 77 3 0 33 0 32 -210 3 c-189 3 -217 6 -280 26 -81 27 -140 29
-183 7 -17 -9 -36 -16 -42 -16 -6 0 -10 65 -10 193 0 183 -1 200 -36 362 -36
166 -46 197 -58 177z m43 -237 l31 -150 -2 -750 -3 -750 -62 -3 -63 -3 0 766
0 765 30 135 c17 74 30 138 30 142 0 24 12 -21 39 -152z m-178 -507 c97 -45
77 -48 -296 -48 -205 0 -345 4 -345 9 0 6 52 7 128 4 142 -6 270 7 353 36 72
26 102 25 160 -1z m443 2 c89 -30 216 -43 359 -37 79 4 127 3 127 -3 0 -6
-131 -10 -350 -10 -378 0 -401 4 -297 47 65 27 89 28 161 3z m-794 -493 c78
-164 140 -300 138 -303 -3 -2 -133 -3 -291 -2 l-285 3 120 250 c66 138 131
274 144 304 13 30 26 52 28 50 2 -2 68 -138 146 -302z m1295 -30 c71 -147 126
-270 123 -272 -3 -3 -133 -4 -290 -3 l-285 3 88 185 c49 102 114 238 146 303
l57 119 17 -34 c9 -18 74 -153 144 -301z m-1155 -302 c0 -3 -25 -43 -57 -90
l-56 -85 -173 0 -173 0 -51 75 c-28 41 -53 82 -56 90 -5 13 30 15 280 15 157
0 286 -2 286 -5z m1280 0 c0 -3 -25 -43 -57 -90 l-56 -85 -173 0 -173 0 -51
75 c-28 41 -53 82 -56 90 -5 13 30 15 280 15 157 0 286 -2 286 -5z m-772 -371
c62 -26 124 -96 70 -80 -32 10 -429 13 -435 4 -7 -12 -33 -9 -33 3 0 18 56 65
92 76 54 18 262 16 306 -3z m-90 -136 c3 -16 -5 -18 -62 -18 -60 0 -66 2 -66
20 0 19 5 21 62 18 50 -2 63 -6 66 -20z m52 -58 c0 -6 -45 -10 -115 -10 -70 0
-115 4 -115 10 0 6 45 10 115 10 70 0 115 -4 115 -10z m-50 -55 c0 -12 -14
-15 -65 -15 -51 0 -65 3 -65 15 0 12 14 15 65 15 51 0 65 -3 65 -15z m50 -55
c0 -6 -45 -10 -115 -10 -70 0 -115 4 -115 10 0 6 45 10 115 10 70 0 115 -4
115 -10z m-52 -52 c-3 -8 -28 -14 -66 -16 -51 -2 -62 0 -62 13 0 12 13 15 66
15 48 0 65 -3 62 -12z m52 -58 c0 -6 -45 -10 -115 -10 -70 0 -115 4 -115 10 0
6 45 10 115 10 70 0 115 -4 115 -10z m-60 -55 c0 -12 -13 -15 -60 -15 -47 0
-60 3 -60 15 0 12 13 15 60 15 47 0 60 -3 60 -15z m55 -55 c-4 -6 -53 -10
-116 -10 -66 0 -109 4 -109 10 0 6 45 10 116 10 74 0 113 -4 109 -10z m-55
-50 c0 -18 -7 -20 -60 -20 -43 0 -60 4 -60 13 0 23 11 27 67 27 46 0 53 -2 53
-20z m55 -55 c0 -11 -188 -20 -212 -10 -8 2 -11 10 -8 15 9 14 220 9 220 -5z
m-55 -55 c0 -19 -5 -21 -57 -18 -46 2 -59 7 -61 21 -3 15 5 17 57 17 55 0 61
-2 61 -20z m55 -50 c4 -6 -35 -10 -109 -10 -71 0 -116 4 -116 10 0 6 43 10
109 10 63 0 112 -4 116 -10z m-55 -69 c0 -34 -20 -53 -57 -53 -30 0 -63 33
-63 63 0 17 8 19 60 19 59 0 60 0 60 -29z"/>
<path d="M392 1325 c-101 -61 -188 -117 -194 -123 -15 -15 5 -131 34 -190 33
-71 144 -129 278 -147 39 -5 50 -12 80 -52 50 -66 202 -218 292 -291 249 -202
566 -358 898 -442 760 -192 1597 -16 2159 455 84 71 228 214 286 286 27 33 39
38 114 53 184 37 250 105 275 281 l6 40 -202 123 c-142 86 -204 118 -209 109
-4 -6 -17 -50 -30 -97 -12 -47 -24 -87 -25 -89 -3 -4 -32 6 -111 37 l-51 21
-53 -82 c-410 -631 -1240 -925 -2041 -722 -420 107 -784 357 -1010 695 -39 58
-76 104 -82 102 -6 -1 -39 -14 -74 -27 -34 -14 -66 -25 -70 -25 -5 0 -21 45
-37 100 -15 55 -33 100 -39 99 -6 -1 -93 -52 -194 -114z m434 -270 c42 -27 58
-125 20 -125 -20 0 -39 27 -32 45 6 18 -30 59 -44 50 -6 -4 -1 -23 11 -47 11
-22 21 -53 21 -69 3 -87 -113 -93 -157 -9 -19 36 -19 61 -1 85 12 17 16 17 31
5 10 -8 14 -22 11 -35 -10 -38 40 -85 59 -55 3 5 -3 27 -15 49 -27 55 -26 85
7 110 27 22 49 21 89 -4z m3274 -36 c58 -22 108 -44 113 -48 4 -4 -2 -16 -13
-26 -16 -15 -25 -16 -44 -7 -20 9 -27 7 -52 -19 -25 -26 -26 -31 -15 -55 10
-24 9 -30 -8 -48 -11 -11 -22 -18 -25 -15 -2 2 -27 53 -55 113 -48 103 -50
110 -35 128 10 10 20 18 23 18 3 0 53 -18 111 -41z m-125 -157 c75 -79 78 -85
60 -98 -24 -17 -36 -17 -105 1 -30 8 -55 13 -57 12 -1 -2 16 -23 37 -49 38
-44 39 -46 21 -62 -17 -16 -22 -12 -95 65 -42 44 -76 87 -76 94 0 29 32 33 99
14 36 -11 70 -19 76 -19 5 0 -10 19 -33 43 -23 23 -42 47 -42 53 0 12 22 35
30 32 3 -2 42 -41 85 -86z m-2978 4 c-3 -6 -24 -59 -47 -118 -39 -101 -42
-107 -61 -95 -16 9 -19 19 -16 43 4 26 0 37 -24 60 -25 24 -32 26 -53 16 -20
-9 -27 -7 -42 9 -9 10 -15 21 -12 24 2 2 51 27 109 53 97 46 105 48 127 34 13
-8 21 -20 19 -26z m146 -112 l86 -69 1 -47 0 -48 45 22 c34 17 50 20 62 12 31
-19 23 -30 -45 -63 -52 -25 -73 -42 -90 -72 -25 -43 -30 -45 -56 -26 -18 13
-17 15 8 55 22 35 26 53 26 111 0 59 -3 69 -15 65 -8 -4 -26 1 -40 10 -24 16
-25 15 -81 -54 -31 -39 -59 -70 -62 -70 -3 0 -13 7 -23 16 -17 16 -15 20 41
89 l60 74 -26 20 c-22 18 -25 23 -14 36 17 21 22 19 123 -61z m2648 -50 c54
-31 99 -60 99 -64 0 -4 -7 -13 -15 -20 -12 -10 -21 -10 -41 -1 -22 10 -30 8
-59 -15 -30 -23 -33 -28 -24 -52 8 -21 7 -29 -7 -39 -10 -7 -21 -13 -26 -13
-4 0 -24 52 -44 117 -35 111 -36 117 -19 130 11 7 23 13 28 13 5 0 54 -25 108
-56z m-190 -60 c11 -14 10 -18 -5 -30 -10 -7 -30 -11 -45 -8 -18 4 -32 0 -40
-10 -21 -25 -6 -30 53 -17 75 17 116 -8 116 -69 0 -57 -105 -109 -155 -76 -30
20 -32 32 -4 46 15 9 24 8 35 -1 21 -17 64 4 64 32 0 19 -4 21 -32 15 -88 -19
-95 -19 -117 3 -30 30 -27 68 10 102 36 34 97 40 120 13z m-2176 -66 c19 -9
25 -17 21 -32 -2 -12 -8 -67 -12 -123 -3 -57 -11 -103 -16 -103 -5 0 -18 5
-29 11 -16 8 -19 17 -14 38 5 25 2 29 -35 46 -38 17 -41 17 -59 1 -21 -20 -64
-13 -59 8 2 10 167 165 175 166 1 0 14 -5 28 -12z m1990 -29 c-22 -62 -19 -72
33 -101 26 -15 56 -33 66 -41 19 -14 19 -15 -9 -29 -27 -15 -31 -14 -74 13
-25 16 -48 29 -52 29 -15 0 -15 -36 0 -68 13 -29 13 -34 1 -42 -8 -6 -19 -10
-25 -10 -10 0 -120 199 -113 205 2 1 13 8 25 14 21 11 25 9 40 -24 9 -19 20
-35 23 -35 4 0 13 24 20 54 9 37 19 57 34 64 41 20 46 15 31 -29z m-184 -141
c35 -40 72 -83 82 -95 l20 -22 -29 -11 c-24 -10 -30 -8 -45 11 -16 22 -19 22
-55 8 -30 -11 -40 -21 -44 -43 -3 -18 -14 -32 -27 -37 -23 -8 -23 -7 -23 75 0
150 8 177 51 185 4 0 35 -32 70 -71z m-1474 30 c9 -12 35 -239 28 -246 -1 -2
-14 0 -29 4 -20 5 -26 12 -26 35 0 25 -5 30 -40 39 -37 10 -43 9 -59 -11 -14
-18 -22 -20 -45 -13 l-27 9 73 97 c73 97 101 116 125 86z m1279 -39 c36 -29
-3 -59 -50 -38 -22 10 -29 9 -46 -6 -11 -10 -20 -29 -20 -42 0 -31 25 -79 45
-87 22 -8 52 9 60 34 8 25 55 28 55 4 0 -21 -20 -56 -39 -71 -48 -35 -128 -16
-156 38 -20 38 -23 106 -6 138 25 45 117 63 157 30z m-1083 -10 c22 -6 44 -20
54 -36 33 -50 11 -157 -36 -183 -25 -13 -57 -13 -119 1 l-50 10 24 107 c13 59
23 111 24 115 0 9 30 4 103 -14z m891 -36 c9 -48 27 -195 24 -198 -2 -1 -13
-6 -25 -9 -24 -8 -22 -14 -44 129 -5 38 -11 71 -13 72 -1 2 -8 -41 -15 -94
-16 -120 -17 -123 -51 -123 -24 0 -29 6 -51 70 -26 76 -31 74 -44 -18 -6 -43
-12 -56 -31 -64 -15 -7 -28 -8 -33 -2 -5 5 -24 57 -44 116 l-35 106 25 5 c21
4 27 -1 39 -30 8 -19 17 -48 21 -64 8 -41 20 -20 29 48 3 29 11 53 18 53 6 0
21 3 34 6 13 4 22 2 22 -4 0 -6 10 -37 22 -69 l22 -58 11 70 c9 66 11 70 40
76 61 13 73 11 79 -18z m-746 -37 l-5 -44 38 -4 c42 -4 49 4 49 53 0 25 4 29
26 29 l27 0 -7 -112 c-4 -62 -9 -115 -11 -119 -3 -3 -16 -4 -31 -1 -24 4 -25
7 -19 53 l7 49 -40 0 c-39 0 -40 0 -46 -45 -6 -40 -10 -45 -33 -45 l-26 0 8
102 c8 122 10 128 42 128 24 0 25 -2 21 -44z m196 28 c13 -5 16 -25 16 -121
l0 -114 -27 3 c-16 2 -28 9 -27 16 1 6 2 59 3 117 1 103 4 111 35 99z"/>
<path d="M4032 965 c13 -28 21 -31 37 -12 8 11 5 16 -15 25 -34 16 -35 16 -22
-13z"/>
<path d="M897 824 c-23 -12 -26 -18 -16 -30 17 -20 23 -18 36 16 6 17 11 30
10 30 -1 -1 -15 -8 -30 -16z"/>
<path d="M3714 664 c10 -38 14 -41 32 -22 14 13 12 17 -12 33 l-27 17 7 -28z"/>
<path d="M1365 491 c-16 -19 -17 -24 -5 -31 19 -12 33 2 28 30 l-3 22 -20 -21z"/>
<path d="M3160 372 c0 -32 12 -40 38 -24 9 6 6 14 -13 32 l-25 23 0 -31z"/>
<path d="M1698 350 c-16 -22 -16 -25 -2 -33 21 -12 26 -5 22 30 l-3 28 -17
-25z"/>
<path d="M1882 292 c-17 -81 -16 -82 22 -82 41 0 56 17 63 68 4 33 2 42 -18
56 -42 29 -54 21 -67 -42z"/>
<path d="M43 1418 c-6 -7 -13 -23 -16 -36 -5 -22 -5 -23 18 -8 14 9 40 16 60
16 37 0 43 8 23 28 -16 16 -73 15 -85 0z"/>
<path d="M4675 1410 c-18 -20 -17 -20 21 -20 22 0 50 -7 62 -16 21 -14 22 -14
22 5 0 48 -71 69 -105 31z"/>
</g>
</svg>